<mxfile host="app.diagrams.net" modified="2024-04-13T08:32:59.157Z" agent="Mozilla/5.0 (Windows NT 10.0; Win64; x64) AppleWebKit/537.36 (KHTML, like Gecko) Chrome/123.0.0.0 Safari/537.36" etag="580YI7q-VqMxka5T225v" version="24.2.5" type="github">
  <diagram name="Page-1" id="PhmL8ChW0nNuK_dvkQb1">
    <mxGraphModel dx="1000" dy="497" grid="1" gridSize="10" guides="1" tooltips="1" connect="1" arrows="1" fold="1" page="1" pageScale="1" pageWidth="850" pageHeight="1100" math="0" shadow="0">
      <root>
        <mxCell id="0" />
        <mxCell id="1" parent="0" />
        <mxCell id="orcUmV9TYsuKy_ZQztKo-1" value="&lt;p style=&quot;margin:0px;margin-top:4px;text-align:center;&quot;&gt;&amp;lt;&amp;lt;enumeration&amp;gt;&amp;gt;&lt;br&gt;&lt;b&gt;TYPE&lt;/b&gt;&lt;/p&gt;&lt;hr&gt;&lt;p style=&quot;margin:0px;margin-left:8px;text-align:left;&quot;&gt;BALL&lt;/p&gt;&lt;p style=&quot;margin:0px;margin-left:8px;text-align:left;&quot;&gt;GEL&lt;/p&gt;&lt;p style=&quot;margin:0px;margin-left:8px;text-align:left;&quot;&gt;FOUNTAIN&lt;/p&gt;" style="shape=rect;html=1;overflow=fill;whiteSpace=wrap;" vertex="1" parent="1">
          <mxGeometry x="425" y="230" width="105" height="120" as="geometry" />
        </mxCell>
        <UserObject label="&lt;span data-lucid-type=&quot;application/vnd.lucid.text&quot; data-lucid-content=&quot;{&amp;quot;t&amp;quot;:&amp;quot;Any physical entity that can write is a pen\nType of pen - ball, gel, fountain etc\n refillable ? replacable refills?\nPen model name and brand name\nPen attributes : Price, dimension, color etc\nPen can be closed via click, roll or cap\nNib radius can be different\nAll pens dont have nibs\nwrite\nrifill \nclose \nopen &amp;quot;,&amp;quot;m&amp;quot;:[{&amp;quot;s&amp;quot;:0,&amp;quot;n&amp;quot;:&amp;quot;t&amp;quot;,&amp;quot;v&amp;quot;:&amp;quot;ol&amp;quot;},{&amp;quot;s&amp;quot;:0,&amp;quot;n&amp;quot;:&amp;quot;il&amp;quot;,&amp;quot;v&amp;quot;:31.333333333333325},{&amp;quot;s&amp;quot;:0,&amp;quot;n&amp;quot;:&amp;quot;fl&amp;quot;,&amp;quot;v&amp;quot;:31.333333333333325},{&amp;quot;s&amp;quot;:0,&amp;quot;n&amp;quot;:&amp;quot;a&amp;quot;,&amp;quot;v&amp;quot;:&amp;quot;left&amp;quot;},{&amp;quot;s&amp;quot;:44,&amp;quot;n&amp;quot;:&amp;quot;t&amp;quot;,&amp;quot;v&amp;quot;:&amp;quot;ol&amp;quot;},{&amp;quot;s&amp;quot;:44,&amp;quot;n&amp;quot;:&amp;quot;il&amp;quot;,&amp;quot;v&amp;quot;:31.333333333333325},{&amp;quot;s&amp;quot;:44,&amp;quot;n&amp;quot;:&amp;quot;fl&amp;quot;,&amp;quot;v&amp;quot;:31.333333333333325},{&amp;quot;s&amp;quot;:44,&amp;quot;n&amp;quot;:&amp;quot;a&amp;quot;,&amp;quot;v&amp;quot;:&amp;quot;left&amp;quot;},{&amp;quot;s&amp;quot;:82,&amp;quot;n&amp;quot;:&amp;quot;t&amp;quot;,&amp;quot;v&amp;quot;:&amp;quot;ol&amp;quot;},{&amp;quot;s&amp;quot;:82,&amp;quot;n&amp;quot;:&amp;quot;il&amp;quot;,&amp;quot;v&amp;quot;:31.333333333333325},{&amp;quot;s&amp;quot;:82,&amp;quot;n&amp;quot;:&amp;quot;fl&amp;quot;,&amp;quot;v&amp;quot;:31.333333333333325},{&amp;quot;s&amp;quot;:82,&amp;quot;n&amp;quot;:&amp;quot;a&amp;quot;,&amp;quot;v&amp;quot;:&amp;quot;left&amp;quot;},{&amp;quot;s&amp;quot;:116,&amp;quot;n&amp;quot;:&amp;quot;t&amp;quot;,&amp;quot;v&amp;quot;:&amp;quot;ol&amp;quot;},{&amp;quot;s&amp;quot;:116,&amp;quot;n&amp;quot;:&amp;quot;il&amp;quot;,&amp;quot;v&amp;quot;:31.333333333333325},{&amp;quot;s&amp;quot;:116,&amp;quot;n&amp;quot;:&amp;quot;fl&amp;quot;,&amp;quot;v&amp;quot;:31.333333333333325},{&amp;quot;s&amp;quot;:116,&amp;quot;n&amp;quot;:&amp;quot;a&amp;quot;,&amp;quot;v&amp;quot;:&amp;quot;left&amp;quot;},{&amp;quot;s&amp;quot;:146,&amp;quot;n&amp;quot;:&amp;quot;t&amp;quot;,&amp;quot;v&amp;quot;:&amp;quot;ol&amp;quot;},{&amp;quot;s&amp;quot;:146,&amp;quot;n&amp;quot;:&amp;quot;il&amp;quot;,&amp;quot;v&amp;quot;:31.333333333333325},{&amp;quot;s&amp;quot;:146,&amp;quot;n&amp;quot;:&amp;quot;fl&amp;quot;,&amp;quot;v&amp;quot;:31.333333333333325},{&amp;quot;s&amp;quot;:146,&amp;quot;n&amp;quot;:&amp;quot;a&amp;quot;,&amp;quot;v&amp;quot;:&amp;quot;left&amp;quot;},{&amp;quot;s&amp;quot;:191,&amp;quot;n&amp;quot;:&amp;quot;t&amp;quot;,&amp;quot;v&amp;quot;:&amp;quot;ol&amp;quot;},{&amp;quot;s&amp;quot;:191,&amp;quot;n&amp;quot;:&amp;quot;il&amp;quot;,&amp;quot;v&amp;quot;:31.333333333333325},{&amp;quot;s&amp;quot;:191,&amp;quot;n&amp;quot;:&amp;quot;fl&amp;quot;,&amp;quot;v&amp;quot;:31.333333333333325},{&amp;quot;s&amp;quot;:191,&amp;quot;n&amp;quot;:&amp;quot;a&amp;quot;,&amp;quot;v&amp;quot;:&amp;quot;left&amp;quot;},{&amp;quot;s&amp;quot;:232,&amp;quot;n&amp;quot;:&amp;quot;t&amp;quot;,&amp;quot;v&amp;quot;:&amp;quot;ol&amp;quot;},{&amp;quot;s&amp;quot;:232,&amp;quot;n&amp;quot;:&amp;quot;il&amp;quot;,&amp;quot;v&amp;quot;:31.333333333333325},{&amp;quot;s&amp;quot;:232,&amp;quot;n&amp;quot;:&amp;quot;fl&amp;quot;,&amp;quot;v&amp;quot;:31.333333333333325},{&amp;quot;s&amp;quot;:232,&amp;quot;n&amp;quot;:&amp;quot;a&amp;quot;,&amp;quot;v&amp;quot;:&amp;quot;left&amp;quot;},{&amp;quot;s&amp;quot;:260,&amp;quot;n&amp;quot;:&amp;quot;t&amp;quot;,&amp;quot;v&amp;quot;:&amp;quot;ol&amp;quot;},{&amp;quot;s&amp;quot;:260,&amp;quot;n&amp;quot;:&amp;quot;il&amp;quot;,&amp;quot;v&amp;quot;:31.333333333333325},{&amp;quot;s&amp;quot;:260,&amp;quot;n&amp;quot;:&amp;quot;fl&amp;quot;,&amp;quot;v&amp;quot;:31.333333333333325},{&amp;quot;s&amp;quot;:260,&amp;quot;n&amp;quot;:&amp;quot;a&amp;quot;,&amp;quot;v&amp;quot;:&amp;quot;left&amp;quot;},{&amp;quot;s&amp;quot;:284,&amp;quot;n&amp;quot;:&amp;quot;t&amp;quot;,&amp;quot;v&amp;quot;:&amp;quot;ol&amp;quot;},{&amp;quot;s&amp;quot;:284,&amp;quot;n&amp;quot;:&amp;quot;il&amp;quot;,&amp;quot;v&amp;quot;:31.333333333333325},{&amp;quot;s&amp;quot;:284,&amp;quot;n&amp;quot;:&amp;quot;fl&amp;quot;,&amp;quot;v&amp;quot;:31.333333333333325},{&amp;quot;s&amp;quot;:284,&amp;quot;n&amp;quot;:&amp;quot;a&amp;quot;,&amp;quot;v&amp;quot;:&amp;quot;left&amp;quot;},{&amp;quot;s&amp;quot;:290,&amp;quot;n&amp;quot;:&amp;quot;t&amp;quot;,&amp;quot;v&amp;quot;:&amp;quot;ol&amp;quot;},{&amp;quot;s&amp;quot;:290,&amp;quot;n&amp;quot;:&amp;quot;il&amp;quot;,&amp;quot;v&amp;quot;:31.333333333333325},{&amp;quot;s&amp;quot;:290,&amp;quot;n&amp;quot;:&amp;quot;fl&amp;quot;,&amp;quot;v&amp;quot;:31.333333333333325},{&amp;quot;s&amp;quot;:290,&amp;quot;n&amp;quot;:&amp;quot;a&amp;quot;,&amp;quot;v&amp;quot;:&amp;quot;left&amp;quot;},{&amp;quot;s&amp;quot;:298,&amp;quot;n&amp;quot;:&amp;quot;t&amp;quot;,&amp;quot;v&amp;quot;:&amp;quot;ol&amp;quot;},{&amp;quot;s&amp;quot;:298,&amp;quot;n&amp;quot;:&amp;quot;il&amp;quot;,&amp;quot;v&amp;quot;:31.333333333333325},{&amp;quot;s&amp;quot;:298,&amp;quot;n&amp;quot;:&amp;quot;fl&amp;quot;,&amp;quot;v&amp;quot;:31.333333333333325},{&amp;quot;s&amp;quot;:298,&amp;quot;n&amp;quot;:&amp;quot;a&amp;quot;,&amp;quot;v&amp;quot;:&amp;quot;left&amp;quot;},{&amp;quot;s&amp;quot;:305,&amp;quot;n&amp;quot;:&amp;quot;t&amp;quot;,&amp;quot;v&amp;quot;:&amp;quot;ol&amp;quot;},{&amp;quot;s&amp;quot;:305,&amp;quot;n&amp;quot;:&amp;quot;il&amp;quot;,&amp;quot;v&amp;quot;:31.333333333333325},{&amp;quot;s&amp;quot;:305,&amp;quot;n&amp;quot;:&amp;quot;fl&amp;quot;,&amp;quot;v&amp;quot;:31.333333333333325},{&amp;quot;s&amp;quot;:305,&amp;quot;n&amp;quot;:&amp;quot;a&amp;quot;,&amp;quot;v&amp;quot;:&amp;quot;left&amp;quot;},{&amp;quot;s&amp;quot;:0,&amp;quot;n&amp;quot;:&amp;quot;s&amp;quot;,&amp;quot;v&amp;quot;:31.333333333333325,&amp;quot;e&amp;quot;:310},{&amp;quot;s&amp;quot;:0,&amp;quot;n&amp;quot;:&amp;quot;fsp&amp;quot;,&amp;quot;v&amp;quot;:&amp;quot;ss_presetShapeStyle1_textStyle&amp;quot;,&amp;quot;e&amp;quot;:310},{&amp;quot;s&amp;quot;:0,&amp;quot;n&amp;quot;:&amp;quot;fsp2&amp;quot;,&amp;quot;v&amp;quot;:&amp;quot;ss_presetShapeStyle1_textStyle&amp;quot;,&amp;quot;e&amp;quot;:310}]}&quot;&gt;&lt;font style=&quot;font-size: 11px;&quot;&gt;&lt;span style=&quot;color: rgb(40, 44, 51);&quot;&gt;Any physical entity that can write is a pen&lt;br&gt;&lt;/span&gt;&lt;span style=&quot;color: rgb(40, 44, 51);&quot;&gt;Type of pen - ball, gel, fountain etc&lt;br&gt;&lt;/span&gt;&lt;span style=&quot;color: rgb(40, 44, 51);&quot;&gt; refillable ? replacable refills?&lt;br&gt;&lt;/span&gt;&lt;span style=&quot;color: rgb(40, 44, 51);&quot;&gt;Pen model name and brand name&lt;br&gt;&lt;/span&gt;&lt;span style=&quot;color: rgb(40, 44, 51);&quot;&gt;Pen attributes : Price, dimension, color etc&lt;br&gt;&lt;/span&gt;&lt;span style=&quot;color: rgb(40, 44, 51);&quot;&gt;Pen can be closed via click, roll or cap&lt;br&gt;&lt;/span&gt;&lt;span style=&quot;color: rgb(40, 44, 51);&quot;&gt;Nib radius can be different&lt;br&gt;&lt;/span&gt;&lt;span style=&quot;color: rgb(40, 44, 51);&quot;&gt;All pens dont have nibs&lt;br&gt;&lt;/span&gt;&lt;span style=&quot;color: rgb(40, 44, 51);&quot;&gt;write&lt;br&gt;&lt;/span&gt;&lt;span style=&quot;color: rgb(40, 44, 51);&quot;&gt;rifill &lt;br&gt;&lt;/span&gt;&lt;span style=&quot;color: rgb(40, 44, 51);&quot;&gt;close &lt;br&gt;&lt;/span&gt;&lt;span style=&quot;color: rgb(40, 44, 51);&quot;&gt;open &lt;/span&gt;&lt;/font&gt;&lt;/span&gt;" link="&lt;span data-lucid-type=&quot;application/vnd.lucid.text&quot; data-lucid-content=&quot;{&amp;quot;t&amp;quot;:&amp;quot;Any physical entity that can write is a pen\nType of pen - ball, gel, fountain etc\n refillable ? replacable refills?\nPen model name and brand name\nPen attributes : Price, dimension, color etc\nPen can be closed via click, roll or cap\nNib radius can be different\nAll pens dont have nibs\nwrite\nrifill \nclose \nopen &amp;quot;,&amp;quot;m&amp;quot;:[{&amp;quot;s&amp;quot;:0,&amp;quot;n&amp;quot;:&amp;quot;t&amp;quot;,&amp;quot;v&amp;quot;:&amp;quot;ol&amp;quot;},{&amp;quot;s&amp;quot;:0,&amp;quot;n&amp;quot;:&amp;quot;il&amp;quot;,&amp;quot;v&amp;quot;:31.333333333333325},{&amp;quot;s&amp;quot;:0,&amp;quot;n&amp;quot;:&amp;quot;fl&amp;quot;,&amp;quot;v&amp;quot;:31.333333333333325},{&amp;quot;s&amp;quot;:0,&amp;quot;n&amp;quot;:&amp;quot;a&amp;quot;,&amp;quot;v&amp;quot;:&amp;quot;left&amp;quot;},{&amp;quot;s&amp;quot;:44,&amp;quot;n&amp;quot;:&amp;quot;t&amp;quot;,&amp;quot;v&amp;quot;:&amp;quot;ol&amp;quot;},{&amp;quot;s&amp;quot;:44,&amp;quot;n&amp;quot;:&amp;quot;il&amp;quot;,&amp;quot;v&amp;quot;:31.333333333333325},{&amp;quot;s&amp;quot;:44,&amp;quot;n&amp;quot;:&amp;quot;fl&amp;quot;,&amp;quot;v&amp;quot;:31.333333333333325},{&amp;quot;s&amp;quot;:44,&amp;quot;n&amp;quot;:&amp;quot;a&amp;quot;,&amp;quot;v&amp;quot;:&amp;quot;left&amp;quot;},{&amp;quot;s&amp;quot;:82,&amp;quot;n&amp;quot;:&amp;quot;t&amp;quot;,&amp;quot;v&amp;quot;:&amp;quot;ol&amp;quot;},{&amp;quot;s&amp;quot;:82,&amp;quot;n&amp;quot;:&amp;quot;il&amp;quot;,&amp;quot;v&amp;quot;:31.333333333333325},{&amp;quot;s&amp;quot;:82,&amp;quot;n&amp;quot;:&amp;quot;fl&amp;quot;,&amp;quot;v&amp;quot;:31.333333333333325},{&amp;quot;s&amp;quot;:82,&amp;quot;n&amp;quot;:&amp;quot;a&amp;quot;,&amp;quot;v&amp;quot;:&amp;quot;left&amp;quot;},{&amp;quot;s&amp;quot;:116,&amp;quot;n&amp;quot;:&amp;quot;t&amp;quot;,&amp;quot;v&amp;quot;:&amp;quot;ol&amp;quot;},{&amp;quot;s&amp;quot;:116,&amp;quot;n&amp;quot;:&amp;quot;il&amp;quot;,&amp;quot;v&amp;quot;:31.333333333333325},{&amp;quot;s&amp;quot;:116,&amp;quot;n&amp;quot;:&amp;quot;fl&amp;quot;,&amp;quot;v&amp;quot;:31.333333333333325},{&amp;quot;s&amp;quot;:116,&amp;quot;n&amp;quot;:&amp;quot;a&amp;quot;,&amp;quot;v&amp;quot;:&amp;quot;left&amp;quot;},{&amp;quot;s&amp;quot;:146,&amp;quot;n&amp;quot;:&amp;quot;t&amp;quot;,&amp;quot;v&amp;quot;:&amp;quot;ol&amp;quot;},{&amp;quot;s&amp;quot;:146,&amp;quot;n&amp;quot;:&amp;quot;il&amp;quot;,&amp;quot;v&amp;quot;:31.333333333333325},{&amp;quot;s&amp;quot;:146,&amp;quot;n&amp;quot;:&amp;quot;fl&amp;quot;,&amp;quot;v&amp;quot;:31.333333333333325},{&amp;quot;s&amp;quot;:146,&amp;quot;n&amp;quot;:&amp;quot;a&amp;quot;,&amp;quot;v&amp;quot;:&amp;quot;left&amp;quot;},{&amp;quot;s&amp;quot;:191,&amp;quot;n&amp;quot;:&amp;quot;t&amp;quot;,&amp;quot;v&amp;quot;:&amp;quot;ol&amp;quot;},{&amp;quot;s&amp;quot;:191,&amp;quot;n&amp;quot;:&amp;quot;il&amp;quot;,&amp;quot;v&amp;quot;:31.333333333333325},{&amp;quot;s&amp;quot;:191,&amp;quot;n&amp;quot;:&amp;quot;fl&amp;quot;,&amp;quot;v&amp;quot;:31.333333333333325},{&amp;quot;s&amp;quot;:191,&amp;quot;n&amp;quot;:&amp;quot;a&amp;quot;,&amp;quot;v&amp;quot;:&amp;quot;left&amp;quot;},{&amp;quot;s&amp;quot;:232,&amp;quot;n&amp;quot;:&amp;quot;t&amp;quot;,&amp;quot;v&amp;quot;:&amp;quot;ol&amp;quot;},{&amp;quot;s&amp;quot;:232,&amp;quot;n&amp;quot;:&amp;quot;il&amp;quot;,&amp;quot;v&amp;quot;:31.333333333333325},{&amp;quot;s&amp;quot;:232,&amp;quot;n&amp;quot;:&amp;quot;fl&amp;quot;,&amp;quot;v&amp;quot;:31.333333333333325},{&amp;quot;s&amp;quot;:232,&amp;quot;n&amp;quot;:&amp;quot;a&amp;quot;,&amp;quot;v&amp;quot;:&amp;quot;left&amp;quot;},{&amp;quot;s&amp;quot;:260,&amp;quot;n&amp;quot;:&amp;quot;t&amp;quot;,&amp;quot;v&amp;quot;:&amp;quot;ol&amp;quot;},{&amp;quot;s&amp;quot;:260,&amp;quot;n&amp;quot;:&amp;quot;il&amp;quot;,&amp;quot;v&amp;quot;:31.333333333333325},{&amp;quot;s&amp;quot;:260,&amp;quot;n&amp;quot;:&amp;quot;fl&amp;quot;,&amp;quot;v&amp;quot;:31.333333333333325},{&amp;quot;s&amp;quot;:260,&amp;quot;n&amp;quot;:&amp;quot;a&amp;quot;,&amp;quot;v&amp;quot;:&amp;quot;left&amp;quot;},{&amp;quot;s&amp;quot;:284,&amp;quot;n&amp;quot;:&amp;quot;t&amp;quot;,&amp;quot;v&amp;quot;:&amp;quot;ol&amp;quot;},{&amp;quot;s&amp;quot;:284,&amp;quot;n&amp;quot;:&amp;quot;il&amp;quot;,&amp;quot;v&amp;quot;:31.333333333333325},{&amp;quot;s&amp;quot;:284,&amp;quot;n&amp;quot;:&amp;quot;fl&amp;quot;,&amp;quot;v&amp;quot;:31.333333333333325},{&amp;quot;s&amp;quot;:284,&amp;quot;n&amp;quot;:&amp;quot;a&amp;quot;,&amp;quot;v&amp;quot;:&amp;quot;left&amp;quot;},{&amp;quot;s&amp;quot;:290,&amp;quot;n&amp;quot;:&amp;quot;t&amp;quot;,&amp;quot;v&amp;quot;:&amp;quot;ol&amp;quot;},{&amp;quot;s&amp;quot;:290,&amp;quot;n&amp;quot;:&amp;quot;il&amp;quot;,&amp;quot;v&amp;quot;:31.333333333333325},{&amp;quot;s&amp;quot;:290,&amp;quot;n&amp;quot;:&amp;quot;fl&amp;quot;,&amp;quot;v&amp;quot;:31.333333333333325},{&amp;quot;s&amp;quot;:290,&amp;quot;n&amp;quot;:&amp;quot;a&amp;quot;,&amp;quot;v&amp;quot;:&amp;quot;left&amp;quot;},{&amp;quot;s&amp;quot;:298,&amp;quot;n&amp;quot;:&amp;quot;t&amp;quot;,&amp;quot;v&amp;quot;:&amp;quot;ol&amp;quot;},{&amp;quot;s&amp;quot;:298,&amp;quot;n&amp;quot;:&amp;quot;il&amp;quot;,&amp;quot;v&amp;quot;:31.333333333333325},{&amp;quot;s&amp;quot;:298,&amp;quot;n&amp;quot;:&amp;quot;fl&amp;quot;,&amp;quot;v&amp;quot;:31.333333333333325},{&amp;quot;s&amp;quot;:298,&amp;quot;n&amp;quot;:&amp;quot;a&amp;quot;,&amp;quot;v&amp;quot;:&amp;quot;left&amp;quot;},{&amp;quot;s&amp;quot;:305,&amp;quot;n&amp;quot;:&amp;quot;t&amp;quot;,&amp;quot;v&amp;quot;:&amp;quot;ol&amp;quot;},{&amp;quot;s&amp;quot;:305,&amp;quot;n&amp;quot;:&amp;quot;il&amp;quot;,&amp;quot;v&amp;quot;:31.333333333333325},{&amp;quot;s&amp;quot;:305,&amp;quot;n&amp;quot;:&amp;quot;fl&amp;quot;,&amp;quot;v&amp;quot;:31.333333333333325},{&amp;quot;s&amp;quot;:305,&amp;quot;n&amp;quot;:&amp;quot;a&amp;quot;,&amp;quot;v&amp;quot;:&amp;quot;left&amp;quot;},{&amp;quot;s&amp;quot;:0,&amp;quot;n&amp;quot;:&amp;quot;s&amp;quot;,&amp;quot;v&amp;quot;:31.333333333333325,&amp;quot;e&amp;quot;:310},{&amp;quot;s&amp;quot;:0,&amp;quot;n&amp;quot;:&amp;quot;fsp&amp;quot;,&amp;quot;v&amp;quot;:&amp;quot;ss_presetShapeStyle1_textStyle&amp;quot;,&amp;quot;e&amp;quot;:310},{&amp;quot;s&amp;quot;:0,&amp;quot;n&amp;quot;:&amp;quot;fsp2&amp;quot;,&amp;quot;v&amp;quot;:&amp;quot;ss_presetShapeStyle1_textStyle&amp;quot;,&amp;quot;e&amp;quot;:310}]}&quot;&gt;&lt;span style=&quot;color:#282c33;font-size:23.499999999999996px;&quot;&gt;Any physical entity that can write is a pen&lt;br&gt;&lt;/span&gt;&lt;span style=&quot;color:#282c33;font-size:23.499999999999996px;&quot;&gt;Type of pen - ball, gel, fountain etc&lt;br&gt;&lt;/span&gt;&lt;span style=&quot;color:#282c33;font-size:23.499999999999996px;&quot;&gt; refillable ? replacable refills?&lt;br&gt;&lt;/span&gt;&lt;span style=&quot;color:#282c33;font-size:23.499999999999996px;&quot;&gt;Pen model name and brand name&lt;br&gt;&lt;/span&gt;&lt;span style=&quot;color:#282c33;font-size:23.499999999999996px;&quot;&gt;Pen attributes : Price, dimension, color etc&lt;br&gt;&lt;/span&gt;&lt;span style=&quot;color:#282c33;font-size:23.499999999999996px;&quot;&gt;Pen can be closed via click, roll or cap&lt;br&gt;&lt;/span&gt;&lt;span style=&quot;color:#282c33;font-size:23.499999999999996px;&quot;&gt;Nib radius can be different&lt;br&gt;&lt;/span&gt;&lt;span style=&quot;color:#282c33;font-size:23.499999999999996px;&quot;&gt;All pens dont have nibs&lt;br&gt;&lt;/span&gt;&lt;span style=&quot;color:#282c33;font-size:23.499999999999996px;&quot;&gt;write&lt;br&gt;&lt;/span&gt;&lt;span style=&quot;color:#282c33;font-size:23.499999999999996px;&quot;&gt;rifill &lt;br&gt;&lt;/span&gt;&lt;span style=&quot;color:#282c33;font-size:23.499999999999996px;&quot;&gt;close &lt;br&gt;&lt;/span&gt;&lt;span style=&quot;color:#282c33;font-size:23.499999999999996px;&quot;&gt;open &lt;/span&gt;&lt;/span&gt;" id="orcUmV9TYsuKy_ZQztKo-2">
          <mxCell style="text;whiteSpace=wrap;html=1;" vertex="1" parent="1">
            <mxGeometry x="70" y="40" width="270" height="190" as="geometry" />
          </mxCell>
        </UserObject>
        <mxCell id="orcUmV9TYsuKy_ZQztKo-6" value="&lt;i&gt;Pen&lt;/i&gt;" style="swimlane;fontStyle=1;align=center;verticalAlign=top;childLayout=stackLayout;horizontal=1;startSize=26;horizontalStack=0;resizeParent=1;resizeParentMax=0;resizeLast=0;collapsible=1;marginBottom=0;whiteSpace=wrap;html=1;" vertex="1" parent="1">
          <mxGeometry x="250" y="230" width="160" height="180" as="geometry" />
        </mxCell>
        <mxCell id="orcUmV9TYsuKy_ZQztKo-7" value="&lt;span data-lucid-content=&quot;{&amp;quot;t&amp;quot;:&amp;quot;+ name : String\n+ type : Enum\n+ brandName : String\n+ modelName : String\n\n&amp;quot;,&amp;quot;m&amp;quot;:[{&amp;quot;s&amp;quot;:0,&amp;quot;n&amp;quot;:&amp;quot;a&amp;quot;,&amp;quot;v&amp;quot;:&amp;quot;center&amp;quot;},{&amp;quot;s&amp;quot;:16,&amp;quot;n&amp;quot;:&amp;quot;a&amp;quot;,&amp;quot;v&amp;quot;:&amp;quot;center&amp;quot;},{&amp;quot;s&amp;quot;:30,&amp;quot;n&amp;quot;:&amp;quot;a&amp;quot;,&amp;quot;v&amp;quot;:&amp;quot;center&amp;quot;},{&amp;quot;s&amp;quot;:51,&amp;quot;n&amp;quot;:&amp;quot;a&amp;quot;,&amp;quot;v&amp;quot;:&amp;quot;center&amp;quot;},{&amp;quot;s&amp;quot;:72,&amp;quot;n&amp;quot;:&amp;quot;a&amp;quot;,&amp;quot;v&amp;quot;:&amp;quot;center&amp;quot;},{&amp;quot;s&amp;quot;:0,&amp;quot;n&amp;quot;:&amp;quot;s&amp;quot;,&amp;quot;v&amp;quot;:31.333333333333325,&amp;quot;e&amp;quot;:73},{&amp;quot;s&amp;quot;:0,&amp;quot;n&amp;quot;:&amp;quot;fsp&amp;quot;,&amp;quot;v&amp;quot;:&amp;quot;ss_presetShapeStyle1_textStyle&amp;quot;,&amp;quot;e&amp;quot;:73},{&amp;quot;s&amp;quot;:0,&amp;quot;n&amp;quot;:&amp;quot;fsp2&amp;quot;,&amp;quot;v&amp;quot;:&amp;quot;ss_presetShapeStyle1_textStyle&amp;quot;,&amp;quot;e&amp;quot;:73}]}&quot; data-lucid-type=&quot;application/vnd.lucid.text&quot;&gt;&lt;font style=&quot;font-size: 10px;&quot;&gt;&lt;span style=&quot;color: rgb(40, 44, 51);&quot;&gt;+ name : String&lt;br&gt;&lt;/span&gt;&lt;span style=&quot;color: rgb(40, 44, 51);&quot;&gt;+ type : Enum&lt;br&gt;&lt;/span&gt;&lt;span style=&quot;color: rgb(40, 44, 51);&quot;&gt;+ brandName : String&lt;br&gt;&lt;/span&gt;&lt;span style=&quot;color: rgb(40, 44, 51);&quot;&gt;+ modelName : String&lt;br&gt;&lt;/span&gt;&lt;/font&gt;&lt;span style=&quot;color:#282c33;font-size:23.499999999999996px;&quot;&gt;&lt;br&gt;&lt;/span&gt;&lt;/span&gt;" style="text;strokeColor=none;fillColor=none;align=left;verticalAlign=top;spacingLeft=4;spacingRight=4;overflow=hidden;rotatable=0;points=[[0,0.5],[1,0.5]];portConstraint=eastwest;whiteSpace=wrap;html=1;" vertex="1" parent="orcUmV9TYsuKy_ZQztKo-6">
          <mxGeometry y="26" width="160" height="84" as="geometry" />
        </mxCell>
        <mxCell id="orcUmV9TYsuKy_ZQztKo-8" value="" style="line;strokeWidth=1;fillColor=none;align=left;verticalAlign=middle;spacingTop=-1;spacingLeft=3;spacingRight=3;rotatable=0;labelPosition=right;points=[];portConstraint=eastwest;strokeColor=inherit;" vertex="1" parent="orcUmV9TYsuKy_ZQztKo-6">
          <mxGeometry y="110" width="160" height="8" as="geometry" />
        </mxCell>
        <mxCell id="orcUmV9TYsuKy_ZQztKo-9" value="&lt;span data-lucid-content=&quot;{&amp;quot;t&amp;quot;:&amp;quot;+ write()\n+open()\n+close()&amp;quot;,&amp;quot;m&amp;quot;:[{&amp;quot;s&amp;quot;:0,&amp;quot;n&amp;quot;:&amp;quot;a&amp;quot;,&amp;quot;v&amp;quot;:&amp;quot;center&amp;quot;},{&amp;quot;s&amp;quot;:0,&amp;quot;n&amp;quot;:&amp;quot;fsp&amp;quot;,&amp;quot;v&amp;quot;:&amp;quot;ss_presetShapeStyle1_textStyle&amp;quot;,&amp;quot;e&amp;quot;:26},{&amp;quot;s&amp;quot;:0,&amp;quot;n&amp;quot;:&amp;quot;fsp2&amp;quot;,&amp;quot;v&amp;quot;:&amp;quot;ss_presetShapeStyle1_textStyle&amp;quot;,&amp;quot;e&amp;quot;:26},{&amp;quot;s&amp;quot;:10,&amp;quot;n&amp;quot;:&amp;quot;a&amp;quot;,&amp;quot;v&amp;quot;:&amp;quot;center&amp;quot;},{&amp;quot;s&amp;quot;:18,&amp;quot;n&amp;quot;:&amp;quot;a&amp;quot;,&amp;quot;v&amp;quot;:&amp;quot;center&amp;quot;},{&amp;quot;s&amp;quot;:0,&amp;quot;n&amp;quot;:&amp;quot;s&amp;quot;,&amp;quot;v&amp;quot;:31.333333333333325,&amp;quot;e&amp;quot;:26}]}&quot; data-lucid-type=&quot;application/vnd.lucid.text&quot;&gt;&lt;font style=&quot;font-size: 10px;&quot;&gt;&lt;span style=&quot;color: rgb(40, 44, 51);&quot;&gt;+ write()&lt;br&gt;&lt;/span&gt;&lt;span style=&quot;color: rgb(40, 44, 51);&quot;&gt;+open()&lt;br&gt;&lt;/span&gt;&lt;span style=&quot;color: rgb(40, 44, 51);&quot;&gt;+close()&lt;/span&gt;&lt;/font&gt;&lt;/span&gt;" style="text;strokeColor=none;fillColor=none;align=left;verticalAlign=top;spacingLeft=4;spacingRight=4;overflow=hidden;rotatable=0;points=[[0,0.5],[1,0.5]];portConstraint=eastwest;whiteSpace=wrap;html=1;" vertex="1" parent="orcUmV9TYsuKy_ZQztKo-6">
          <mxGeometry y="118" width="160" height="62" as="geometry" />
        </mxCell>
        <mxCell id="orcUmV9TYsuKy_ZQztKo-10" value="Gel Pen" style="swimlane;fontStyle=1;align=center;verticalAlign=top;childLayout=stackLayout;horizontal=1;startSize=26;horizontalStack=0;resizeParent=1;resizeParentMax=0;resizeLast=0;collapsible=1;marginBottom=0;whiteSpace=wrap;html=1;" vertex="1" parent="1">
          <mxGeometry x="100" y="450" width="160" height="86" as="geometry" />
        </mxCell>
        <mxCell id="orcUmV9TYsuKy_ZQztKo-11" value="+ field: type" style="text;strokeColor=none;fillColor=none;align=left;verticalAlign=top;spacingLeft=4;spacingRight=4;overflow=hidden;rotatable=0;points=[[0,0.5],[1,0.5]];portConstraint=eastwest;whiteSpace=wrap;html=1;" vertex="1" parent="orcUmV9TYsuKy_ZQztKo-10">
          <mxGeometry y="26" width="160" height="26" as="geometry" />
        </mxCell>
        <mxCell id="orcUmV9TYsuKy_ZQztKo-12" value="" style="line;strokeWidth=1;fillColor=none;align=left;verticalAlign=middle;spacingTop=-1;spacingLeft=3;spacingRight=3;rotatable=0;labelPosition=right;points=[];portConstraint=eastwest;strokeColor=inherit;" vertex="1" parent="orcUmV9TYsuKy_ZQztKo-10">
          <mxGeometry y="52" width="160" height="8" as="geometry" />
        </mxCell>
        <mxCell id="orcUmV9TYsuKy_ZQztKo-13" value="+ method(type): type" style="text;strokeColor=none;fillColor=none;align=left;verticalAlign=top;spacingLeft=4;spacingRight=4;overflow=hidden;rotatable=0;points=[[0,0.5],[1,0.5]];portConstraint=eastwest;whiteSpace=wrap;html=1;" vertex="1" parent="orcUmV9TYsuKy_ZQztKo-10">
          <mxGeometry y="60" width="160" height="26" as="geometry" />
        </mxCell>
        <mxCell id="orcUmV9TYsuKy_ZQztKo-15" value="" style="endArrow=diamondThin;endFill=1;endSize=24;html=1;rounded=0;exitX=1;exitY=0.5;exitDx=0;exitDy=0;" edge="1" parent="1" source="orcUmV9TYsuKy_ZQztKo-13">
          <mxGeometry width="160" relative="1" as="geometry">
            <mxPoint x="310" y="510" as="sourcePoint" />
            <mxPoint x="310" y="410" as="targetPoint" />
            <Array as="points">
              <mxPoint x="260" y="510" />
              <mxPoint x="310" y="510" />
            </Array>
          </mxGeometry>
        </mxCell>
        <mxCell id="orcUmV9TYsuKy_ZQztKo-18" style="edgeStyle=orthogonalEdgeStyle;rounded=0;orthogonalLoop=1;jettySize=auto;html=1;" edge="1" parent="1" source="orcUmV9TYsuKy_ZQztKo-16" target="orcUmV9TYsuKy_ZQztKo-10">
          <mxGeometry relative="1" as="geometry" />
        </mxCell>
        <mxCell id="orcUmV9TYsuKy_ZQztKo-16" value="«interface»&lt;br&gt;&lt;b&gt;Refillable&lt;/b&gt;&lt;div&gt;+refill()&lt;b&gt;&lt;br&gt;&lt;/b&gt;&lt;/div&gt;" style="html=1;whiteSpace=wrap;" vertex="1" parent="1">
          <mxGeometry x="90" y="265" width="110" height="50" as="geometry" />
        </mxCell>
      </root>
    </mxGraphModel>
  </diagram>
</mxfile>
